<svg width="675" height="415" viewBox="0 0 675 415" fill="none" xmlns="http://www.w3.org/2000/svg">
<rect width="675" height="415" fill="#E5E5E5"/>
<g clip-path="url(#clip0_0_1)">
<rect width="1440" height="5227" transform="translate(-125 -818)" fill="white"/>
<rect width="1440" height="468" transform="translate(-125 -43)" fill="white"/>
<g filter="url(#filter0_d_0_1)">
<rect x="40" y="24" width="595" height="334.178" rx="10" fill="white"/>
<rect x="40.125" y="24.125" width="594.75" height="333.928" rx="9.875" stroke="#E3E3E3" stroke-width="0.25"/>
</g>
<path d="M385.525 233.526H178.645C177.903 233.525 177.192 233.23 176.668 232.705C176.144 232.181 175.849 231.47 175.848 230.729V102.594H388.322V230.729C388.321 231.47 388.026 232.181 387.502 232.705C386.977 233.23 386.266 233.525 385.525 233.526Z" fill="#E6E6E6"/>
<path d="M379.459 225.518H184.712C183.962 225.517 183.243 225.219 182.713 224.689C182.183 224.159 181.885 223.441 181.884 222.691V117.168C181.885 116.418 182.183 115.699 182.713 115.169C183.243 114.639 183.962 114.341 184.712 114.34H379.459C380.209 114.341 380.928 114.639 381.458 115.169C381.988 115.699 382.286 116.418 382.287 117.168V222.691C382.286 223.441 381.988 224.159 381.458 224.689C380.928 225.219 380.209 225.517 379.459 225.518V225.518Z" fill="white"/>
<path d="M388.231 106.551H175.757V100.006C175.758 99.2648 176.053 98.5539 176.577 98.0296C177.102 97.5052 177.813 97.2103 178.554 97.2095H385.434C386.176 97.2103 386.886 97.5052 387.411 98.0296C387.935 98.5539 388.23 99.2648 388.231 100.006L388.231 106.551Z" fill="#193EF1"/>
<path d="M182.62 103.652C183.542 103.652 184.29 102.904 184.29 101.981C184.29 101.059 183.542 100.311 182.62 100.311C181.697 100.311 180.949 101.059 180.949 101.981C180.949 102.904 181.697 103.652 182.62 103.652Z" fill="white"/>
<path d="M188.96 103.652C189.882 103.652 190.63 102.904 190.63 101.981C190.63 101.059 189.882 100.311 188.96 100.311C188.037 100.311 187.289 101.059 187.289 101.981C187.289 102.904 188.037 103.652 188.96 103.652Z" fill="white"/>
<path d="M195.301 103.652C196.223 103.652 196.971 102.904 196.971 101.981C196.971 101.059 196.223 100.311 195.301 100.311C194.378 100.311 193.63 101.059 193.63 101.981C193.63 102.904 194.378 103.652 195.301 103.652Z" fill="white"/>
<path d="M221.971 133.263H201.899V142.147H221.971V133.263Z" fill="#E6E6E6"/>
<path d="M262.115 151.689H242.043V160.573H262.115V151.689Z" fill="#E6E6E6"/>
<path d="M221.971 179.329H201.899V188.213H221.971V179.329Z" fill="#193EF1"/>
<path d="M262.115 197.756H242.043V206.64H262.115V197.756Z" fill="#193EF1"/>
<path d="M362.144 206.969H342.073V215.853H362.144V206.969Z" fill="#193EF1"/>
<path d="M342.074 170.115H322.002V179H342.074V170.115Z" fill="#E6E6E6"/>
<path d="M302.259 170.115H262.115V179H302.259V170.115Z" fill="#193EF1"/>
<path d="M302.259 123.72H262.115V132.604H302.259V123.72Z" fill="#193EF1"/>
<path d="M181.827 114.177V225.724H382.546V114.177L181.827 114.177ZM381.888 123.418H362.54V114.836H381.888V123.418ZM262.51 188.103V179.521H301.864V188.103H262.51ZM301.864 188.761V197.344H262.51V188.761H301.864ZM301.864 151.799V160.381H262.51V151.799H301.864ZM262.51 151.14V142.558H301.864V151.14H262.51ZM262.51 169.622V161.039H301.864V169.622H262.51ZM301.864 170.28V178.863H262.51V170.28H301.864ZM261.852 160.381H242.504V151.799H261.852V160.381ZM261.852 161.039V169.622H242.504V161.039H261.852ZM261.852 170.28V178.863H242.504V170.28H261.852ZM261.852 179.521V188.103H242.504V179.521H261.852ZM302.522 179.521H321.87V188.103H302.522L302.522 179.521ZM302.522 178.863V170.28H321.87V178.863H302.522ZM302.522 169.622V161.039H321.87V169.622H302.522ZM302.522 160.381V151.799H321.87V160.381H302.522ZM302.522 151.14V142.558H321.87V151.14H302.522ZM302.522 141.9V133.317H321.87V141.9H302.522ZM301.864 141.9H262.51V133.317H301.864L301.864 141.9ZM261.852 141.9H242.504V133.317H261.852V141.9ZM261.852 142.558V151.14H242.504V142.558H261.852ZM241.846 151.14H222.497V142.558H241.846L241.846 151.14ZM241.846 151.799V160.381H222.497V151.799H241.846ZM241.846 161.039V169.622H222.497V161.039H241.846ZM241.846 170.28V178.863H222.497V170.28H241.846ZM241.846 179.521V188.103H222.497V179.521H241.846ZM241.846 188.761V197.344H222.497V188.761H241.846ZM242.504 188.761H261.852V197.344H242.504V188.761ZM261.852 198.002V206.585H242.504V198.002H261.852ZM262.51 198.002H301.864V206.585H262.51V198.002ZM302.522 198.002H321.87V206.585H302.522L302.522 198.002ZM302.522 197.344V188.761H321.87V197.344H302.522ZM322.528 188.761H341.876V197.344H322.528L322.528 188.761ZM322.528 188.103V179.521H341.876V188.103H322.528ZM322.528 178.863V170.28H341.876V178.863H322.528ZM322.528 169.622V161.039H341.876V169.622H322.528ZM322.528 160.381V151.799H341.876V160.381H322.528ZM322.528 151.14V142.558H341.876V151.14H322.528ZM322.528 141.9V133.317H341.876V141.9H322.528ZM322.528 132.659V124.076H341.876V132.659H322.528ZM321.87 132.659H302.522V124.076H321.87L321.87 132.659ZM301.864 132.659H262.51V124.076H301.864L301.864 132.659ZM261.852 132.659H242.504V124.076H261.852V132.659ZM241.846 132.659H222.497V124.076H241.846L241.846 132.659ZM241.846 133.317V141.9H222.497V133.317H241.846ZM221.839 141.9H202.491V133.317H221.839V141.9ZM221.839 142.558V151.14H202.491V142.558H221.839ZM221.839 151.799V160.381H202.491V151.799H221.839ZM221.839 161.039V169.622H202.491V161.039H221.839ZM221.839 170.28V178.863H202.491V170.28H221.839ZM221.839 179.521V188.103H202.491V179.521H221.839ZM221.839 188.761V197.344H202.491V188.761H221.839ZM221.839 198.002V206.585H202.491V198.002H221.839ZM222.497 198.002H241.846V206.585H222.497L222.497 198.002ZM241.846 207.243V215.826H222.497V207.243H241.846ZM242.504 207.243H261.852V215.826H242.504V207.243ZM262.51 207.243H301.864V215.826H262.51V207.243ZM302.522 207.243H321.87V215.826H302.522L302.522 207.243ZM322.528 207.243H341.876V215.826H322.528L322.528 207.243ZM322.528 206.585V198.002H341.876V206.585H322.528ZM342.534 198.002H361.882V206.585H342.534V198.002ZM342.534 197.344V188.761H361.882V197.344H342.534ZM342.534 188.103V179.521H361.882V188.103H342.534ZM342.534 178.863V170.28H361.882V178.863H342.534ZM342.534 169.622V161.039H361.882V169.622H342.534ZM342.534 160.381V151.799H361.882V160.381H342.534ZM342.534 151.14V142.558H361.882V151.14H342.534ZM342.534 141.9V133.317H361.882V141.9H342.534ZM342.534 132.659V124.076H361.882V132.659H342.534ZM342.534 123.418V114.836H361.882V123.418L342.534 123.418ZM341.876 123.418H322.528V114.836H341.876L341.876 123.418ZM321.87 123.418H302.522V114.836H321.87L321.87 123.418ZM301.864 123.418H262.51V114.836H301.864L301.864 123.418ZM261.852 123.418H242.504V114.836H261.852V123.418ZM241.846 123.418H222.497V114.836H241.846L241.846 123.418ZM221.839 123.418H202.491V114.836H221.839V123.418ZM221.839 124.076V132.659H202.491V124.076H221.839ZM201.833 132.659H182.486V124.076H201.833L201.833 132.659ZM201.833 133.317V141.9H182.486V133.317H201.833ZM201.833 142.558V151.14H182.486V142.558H201.833ZM201.833 151.799V160.381H182.486V151.799H201.833ZM201.833 161.039V169.622H182.486V161.039H201.833ZM201.833 170.28V178.863H182.486V170.28H201.833ZM201.833 179.521V188.103H182.486V179.521H201.833ZM201.833 188.761V197.344H182.486V188.761H201.833ZM201.833 198.002V206.585H182.486V198.002H201.833ZM201.833 207.243V215.826H182.486V207.243H201.833ZM202.491 207.243H221.839V215.826H202.491L202.491 207.243ZM221.839 216.484V225.066H202.491V216.484H221.839ZM222.497 216.484H241.846V225.066H222.497L222.497 216.484ZM242.504 216.484H261.852V225.066H242.504L242.504 216.484ZM262.51 216.484H301.864V225.066H262.51L262.51 216.484ZM302.522 216.484H321.87V225.066H302.522V216.484ZM322.528 216.484H341.876V225.066H322.528L322.528 216.484ZM342.534 216.484H361.882V225.066H342.534V216.484ZM342.534 215.826V207.243H361.882V215.826H342.534ZM362.54 207.243H381.888V215.826H362.54V207.243ZM362.54 206.585V198.002H381.888V206.585H362.54ZM362.54 197.344V188.761H381.888V197.344H362.54ZM362.54 188.103V179.521H381.888V188.103H362.54ZM362.54 178.863V170.28H381.888V178.863H362.54ZM362.54 169.622V161.039H381.888V169.622H362.54ZM362.54 160.381V151.799H381.888V160.381H362.54ZM362.54 151.14V142.558H381.888V151.14H362.54ZM362.54 141.9V133.317H381.888V141.9H362.54ZM362.54 132.659V124.076H381.888V132.659H362.54ZM201.833 114.836V123.418H182.486V114.836H201.833ZM182.486 216.484H201.833V225.066H182.486V216.484ZM362.54 225.066V216.484H381.888V225.066H362.54Z" fill="#E6E6E6"/>
<path d="M127.189 174.616C127.189 174.616 117.035 172.277 111.45 176.566C105.865 180.856 118.558 190.605 118.558 190.605L127.189 174.616Z" fill="#2F2E41"/>
<path d="M137.69 230.572C137.486 230.036 137.403 229.461 137.445 228.89C137.488 228.318 137.655 227.763 137.935 227.262C138.216 226.762 138.602 226.33 139.068 225.995C139.533 225.661 140.067 225.432 140.63 225.326L142.682 211.542L148.075 216.376L145.299 228.724C145.415 229.683 145.175 230.65 144.625 231.443C144.075 232.236 143.253 232.8 142.315 233.028C141.377 233.256 140.388 233.131 139.536 232.679C138.683 232.226 138.026 231.476 137.69 230.572H137.69Z" fill="#FFB8B8"/>
<path d="M116.434 302.128L121.204 301.811L122.253 283.26L115.213 283.727L116.434 302.128Z" fill="#FFB8B8"/>
<path d="M130.523 306.134H115.497V300.329H124.717C126.257 300.329 127.734 300.94 128.822 302.029C129.911 303.118 130.523 304.595 130.523 306.134V306.134V306.134Z" fill="#2F2E41"/>
<path d="M124.679 295.524L129.164 297.179L137.685 280.667L131.065 278.224L124.679 295.524Z" fill="#FFB8B8"/>
<path d="M136.276 304.537L122.18 299.334L124.19 293.887L132.84 297.08C134.285 297.614 135.458 298.699 136.103 300.097C136.747 301.496 136.81 303.093 136.276 304.537V304.537L136.276 304.537Z" fill="#2F2E41"/>
<path d="M137.72 224.256C137.72 224.256 142.552 226.857 141.065 237.263L139.579 276.656L131.366 294.614L124.305 292.756L128.801 278.143L122.855 252.5L122.075 299.074L115.386 300.189L105.76 222.769L118.024 217.195L137.72 224.256Z" fill="#2F2E41"/>
<path d="M120.452 170.195C125.742 170.195 130.03 165.907 130.03 160.617C130.03 155.327 125.742 151.039 120.452 151.039C115.162 151.039 110.874 155.327 110.874 160.617C110.874 165.907 115.162 170.195 120.452 170.195Z" fill="#FFB8B8"/>
<path d="M126.014 172.784L121.183 180.589L114.121 173.527L100.921 182.768C100.458 183.091 100.118 183.562 99.9569 184.103C99.7959 184.645 99.8232 185.225 100.034 185.749C102.065 190.77 107.265 205.611 105.76 222.769C105.76 222.769 115.794 220.168 126.2 223.141C136.605 226.114 139.207 224.999 139.207 224.999C139.207 224.999 136.605 206.046 138.092 201.958C139.325 198.567 141.837 187.249 142.657 183.488C142.735 183.133 142.696 182.762 142.546 182.43C142.397 182.099 142.145 181.824 141.828 181.647L126.014 172.784Z" fill="#193EF1"/>
<path d="M141.444 181.692C141.853 181.634 142.269 181.726 142.614 181.952C142.96 182.178 143.211 182.522 143.321 182.92L149.612 205.637L148.125 219.388L141.064 218.273L141.808 208.61L136.605 196.346L140.039 182.952C140.123 182.626 140.301 182.333 140.551 182.109C140.801 181.885 141.112 181.74 141.444 181.692V181.692Z" fill="#193EF1"/>
<path d="M113.046 147.172C113.685 146.088 114.611 145.201 115.721 144.61C116.832 144.019 118.085 143.747 119.341 143.823C120.654 143.988 121.937 144.346 123.145 144.888L129.406 147.33C131.027 147.962 132.801 148.736 133.504 150.327C134.157 151.803 133.67 153.508 133.177 155.046L130.834 162.352C130.575 160.698 130.13 159.079 129.507 157.526C128.826 155.998 127.75 154.589 126.262 153.826C124.636 152.992 122.719 153.009 120.893 153.097C118.307 153.221 115.495 153.55 113.658 155.374C112.683 156.41 112.022 157.701 111.751 159.098C111.485 160.487 111.352 161.899 111.352 163.313C110.291 161.491 109.398 159.576 108.683 157.592C108.095 156.115 107.759 154.549 107.691 152.961C107.63 151.358 108.161 149.79 109.184 148.555C110.242 147.373 111.966 146.735 113.481 147.203" fill="#2F2E41"/>
<path d="M107.718 236.031C107.922 235.495 108.005 234.921 107.963 234.349C107.92 233.777 107.753 233.222 107.473 232.722C107.192 232.222 106.806 231.789 106.34 231.455C105.875 231.12 105.341 230.892 104.778 230.786L102.726 217.002L97.3332 221.835L100.109 234.184C99.9931 235.142 100.233 236.109 100.783 236.903C101.333 237.696 102.155 238.26 103.093 238.487C104.031 238.715 105.02 238.591 105.872 238.138C106.725 237.685 107.382 236.936 107.718 236.031V236.031Z" fill="#FFB8B8"/>
<path d="M101.056 182.637C100.493 182.73 99.9796 183.014 99.6 183.44C99.2204 183.866 98.998 184.409 98.9695 184.979L96.8402 227.564H104.645L107.246 204.894L103.935 184.699C103.882 184.374 103.765 184.063 103.592 183.784C103.418 183.504 103.191 183.262 102.924 183.07C102.656 182.879 102.354 182.742 102.033 182.667C101.713 182.593 101.381 182.582 101.056 182.637V182.637Z" fill="#193EF1"/>
<path d="M156.637 306.539H89.663V305.718H156.786L156.637 306.539Z" fill="#CCCCCC"/>
<path d="M459.337 308.707C465.327 308.707 470.182 303.852 470.182 297.863C470.182 291.874 465.327 287.018 459.337 287.018C453.348 287.018 448.493 291.874 448.493 297.863C448.493 303.852 453.348 308.707 459.337 308.707Z" fill="#E4E4E4"/>
<path opacity="0.2" d="M451.33 290.62C450.318 292.986 450.181 295.635 450.943 298.093C451.704 300.551 453.315 302.658 455.487 304.038C457.66 305.417 460.252 305.98 462.8 305.624C465.349 305.269 467.688 304.019 469.4 302.097C468.782 303.543 467.857 304.837 466.69 305.89C465.522 306.942 464.139 307.729 462.638 308.194C461.136 308.659 459.551 308.793 457.993 308.585C456.434 308.377 454.94 307.832 453.613 306.989C452.286 306.146 451.158 305.025 450.307 303.703C449.456 302.381 448.903 300.889 448.686 299.332C448.469 297.775 448.593 296.19 449.049 294.685C449.506 293.181 450.284 291.793 451.33 290.62V290.62Z" fill="black"/>
<path d="M459.367 297.863H459.396L459.933 328.609H458.8L459.367 297.863Z" fill="#3F3D56"/>
<path d="M437.395 288.484C449.471 288.484 459.26 278.695 459.26 266.62C459.26 254.544 449.471 244.755 437.395 244.755C425.32 244.755 415.531 254.544 415.531 266.62C415.531 278.695 425.32 288.484 437.395 288.484Z" fill="#E4E4E4"/>
<path opacity="0.2" d="M421.252 252.016C419.212 256.786 418.935 262.127 420.471 267.083C422.007 272.039 425.254 276.287 429.634 279.069C434.013 281.85 439.24 282.984 444.378 282.268C449.517 281.551 454.233 279.03 457.684 275.156C456.439 278.071 454.574 280.68 452.22 282.803C449.865 284.925 447.078 286.51 444.05 287.449C441.022 288.387 437.827 288.656 434.685 288.236C431.543 287.817 428.53 286.719 425.854 285.02C423.178 283.32 420.904 281.06 419.189 278.394C417.474 275.728 416.359 272.721 415.921 269.582C415.483 266.443 415.733 263.246 416.653 260.212C417.574 257.179 419.143 254.382 421.252 252.016V252.016Z" fill="black"/>
<path d="M437.455 266.619H437.516L438.597 328.609H436.314L437.455 266.619Z" fill="#3F3D56"/>
<path d="M581.549 296.523H481.332V326.232H581.549V296.523Z" fill="#F0F0F0"/>
<path d="M537.283 302.664H525.598V326.233H537.283V302.664Z" fill="#CACACA"/>
<path d="M575.706 261.467H487.174V288.799H575.706V261.467Z" fill="#F0F0F0"/>
<path d="M584.682 263.151H478.198C478.021 263.151 477.847 263.098 477.699 262.998C477.552 262.899 477.438 262.757 477.372 262.592C477.305 262.428 477.29 262.247 477.327 262.073C477.364 261.899 477.453 261.74 477.581 261.617L506.683 233.644V221.459C506.683 221.223 506.777 220.997 506.944 220.83C507.111 220.662 507.338 220.568 507.574 220.568H513.318C513.554 220.568 513.781 220.662 513.948 220.83C514.115 220.997 514.209 221.223 514.209 221.459V226.41L516.407 224.297C520.004 220.839 524.776 218.871 529.765 218.788C534.754 218.705 539.589 220.514 543.299 223.85L585.278 261.597C585.412 261.717 585.506 261.876 585.548 262.051C585.59 262.226 585.578 262.41 585.514 262.579C585.449 262.747 585.335 262.892 585.187 262.994C585.038 263.096 584.862 263.151 584.682 263.151V263.151Z" fill="#CACACA"/>
<path d="M510.545 268.399C511.287 268.399 512.021 268.545 512.705 268.829C513.39 269.113 514.013 269.529 514.537 270.053C515.061 270.577 515.477 271.199 515.76 271.884C516.044 272.569 516.19 273.303 516.19 274.044V281.669H504.901V274.044C504.901 273.303 505.047 272.569 505.33 271.884C505.614 271.199 506.03 270.577 506.554 270.053C507.078 269.529 507.7 269.113 508.385 268.829C509.07 268.545 509.804 268.399 510.545 268.399V268.399Z" fill="white"/>
<path d="M531.44 268.498C532.938 268.498 534.373 269.093 535.432 270.152C536.49 271.21 537.085 272.646 537.085 274.143V281.768H525.796V274.143C525.796 272.646 526.391 271.21 527.449 270.152C528.508 269.093 529.943 268.498 531.44 268.498V268.498Z" fill="white"/>
<path d="M552.336 268.597C553.833 268.597 555.269 269.192 556.327 270.251C557.386 271.309 557.981 272.745 557.981 274.242V281.867H546.691V274.242C546.691 272.745 547.286 271.309 548.344 270.251C549.403 269.192 550.839 268.597 552.336 268.597V268.597Z" fill="white"/>
<path d="M560.654 302.366C562.151 302.366 563.587 302.961 564.645 304.019C565.704 305.078 566.299 306.514 566.299 308.011V315.636H555.009V308.011C555.009 306.514 555.604 305.078 556.663 304.019C557.721 302.961 559.157 302.366 560.654 302.366Z" fill="white"/>
<path d="M504.802 302.366C506.299 302.366 507.734 302.961 508.793 304.019C509.852 305.078 510.446 306.514 510.446 308.011V315.636H499.157V308.011C499.157 307.269 499.303 306.535 499.587 305.851C499.87 305.166 500.286 304.543 500.81 304.019C501.334 303.495 501.957 303.079 502.641 302.796C503.326 302.512 504.06 302.366 504.802 302.366V302.366Z" fill="white"/>
<path d="M596.191 296.988L577.391 288.669C577.29 288.624 577.181 288.601 577.07 288.601H487.474C487.372 288.601 487.27 288.621 487.176 288.66L466.712 296.978C466.542 297.047 466.401 297.173 466.314 297.335C466.226 297.497 466.198 297.684 466.233 297.864C466.268 298.044 466.365 298.207 466.507 298.324C466.649 298.44 466.827 298.504 467.011 298.504H472.32V325.836H471.726V328.609H591.155V325.836H590.165V298.504H595.87C596.052 298.504 596.228 298.442 596.369 298.327C596.51 298.213 596.608 298.054 596.645 297.876C596.683 297.698 596.658 297.513 596.575 297.351C596.493 297.189 596.357 297.061 596.191 296.988ZM588.58 325.836H473.904V298.504H588.58V325.836Z" fill="#CACACA"/>
<path d="M517.576 280.58H503.118V282.957H517.576V280.58Z" fill="#CACACA"/>
<path d="M538.768 280.58H524.31V282.957H538.768V280.58Z" fill="#CACACA"/>
<path d="M559.961 280.58H545.502V282.957H559.961V280.58Z" fill="#CACACA"/>
<path d="M567.883 314.844H553.425V317.221H567.883V314.844Z" fill="#CACACA"/>
<path d="M511.833 314.844H497.374V317.221H511.833V314.844Z" fill="#CACACA"/>
<path d="M619.476 328.731H399.344C399.279 328.731 399.218 328.705 399.172 328.66C399.127 328.614 399.101 328.552 399.101 328.488C399.101 328.424 399.127 328.362 399.172 328.316C399.218 328.271 399.279 328.245 399.344 328.245H619.476C619.541 328.245 619.603 328.271 619.648 328.316C619.694 328.362 619.719 328.424 619.719 328.488C619.719 328.552 619.694 328.614 619.648 328.66C619.603 328.705 619.541 328.731 619.476 328.731Z" fill="#3F3D56"/>
<path d="M564.108 261.06C564.108 261.215 564.105 261.373 564.103 261.528C564.101 261.715 564.096 261.9 564.088 262.086C564.081 262.249 564.074 262.409 564.064 262.569C564.035 263.106 563.989 263.64 563.926 264.176C563.911 264.312 563.894 264.446 563.875 264.581C563.86 264.686 563.846 264.793 563.829 264.899C563.812 265.018 563.795 265.137 563.775 265.256C563.736 265.509 563.693 265.761 563.644 266.013C563.62 266.14 563.596 266.266 563.569 266.392C563.518 266.642 563.462 266.894 563.404 267.144C563.399 267.164 563.394 267.186 563.389 267.205C563.36 267.329 563.331 267.45 563.3 267.574C563.29 267.61 563.283 267.644 563.27 267.681C563.249 267.773 563.224 267.865 563.2 267.957C563.166 268.086 563.132 268.212 563.096 268.341C563.037 268.54 562.979 268.737 562.919 268.936C562.911 268.956 562.905 268.977 562.899 268.999C562.783 269.375 562.659 269.746 562.523 270.115C562.453 270.309 562.377 270.506 562.302 270.7C562.227 270.894 562.149 271.088 562.069 271.28C561.991 271.467 561.911 271.654 561.831 271.838C561.812 271.882 561.792 271.926 561.771 271.969C561.686 272.161 561.598 272.348 561.508 272.535C561.506 272.537 561.506 272.542 561.504 272.545C561.433 272.695 561.358 272.846 561.283 272.994C561.283 272.998 561.281 273.002 561.278 273.006C561.205 273.151 561.13 273.297 561.052 273.44L560.928 273.676L560.914 273.702C560.759 273.991 560.598 274.277 560.428 274.561C560.392 274.625 560.356 274.688 560.319 274.748C560.283 274.811 560.244 274.875 560.205 274.935C560.181 274.979 560.154 275.023 560.125 275.066C560.074 275.149 560.023 275.234 559.97 275.316C559.96 275.333 559.948 275.35 559.938 275.367C559.846 275.51 559.754 275.651 559.661 275.794C559.547 275.967 559.431 276.137 559.312 276.306L556.676 280.525L556.562 280.43L556.531 280.401H556.528L556.424 280.313L556.137 280.071C556.05 280.156 555.965 280.241 555.878 280.323C555.844 280.357 555.807 280.389 555.773 280.423C555.747 280.447 555.722 280.471 555.696 280.496C551.139 284.945 545.077 287.522 538.711 287.716H538.704C533.885 287.848 529.114 286.722 524.863 284.449C524.768 284.401 524.676 284.352 524.583 284.296C524.03 283.995 523.489 283.677 522.957 283.338C522.955 283.335 522.952 283.335 522.95 283.333C522.334 282.896 521.732 282.43 521.144 281.935C517.993 279.279 515.5 275.929 513.861 272.148C512.222 268.367 511.481 264.258 511.696 260.142C511.703 259.98 511.713 259.82 511.725 259.657C511.764 259.07 511.824 258.485 511.905 257.902C511.926 257.74 511.951 257.577 511.975 257.417H563.86C563.962 258.159 564.033 258.906 564.071 259.657C564.096 260.125 564.108 260.591 564.108 261.06Z" fill="#F0F0F0"/>
<path d="M563.86 257.417C562.926 251.205 559.794 245.534 555.033 241.436C550.272 237.338 544.199 235.083 537.917 235.083C531.635 235.083 525.562 237.338 520.802 241.436C516.041 245.534 512.909 251.205 511.975 257.417C511.95 257.577 511.926 257.739 511.904 257.902C511.824 258.484 511.764 259.069 511.725 259.657H564.071C564.032 258.907 563.962 258.16 563.86 257.417Z" fill="#193EF1"/>
<path d="M539.617 284.448H524.584V272.423C524.862 266.928 529.559 266.484 533.972 266.779C534.714 266.779 535.448 266.925 536.132 267.208C536.817 267.492 537.44 267.908 537.964 268.432C538.488 268.956 538.904 269.578 539.187 270.263C539.471 270.948 539.617 271.682 539.617 272.423V284.448Z" fill="#193EF1"/>
<path d="M524.583 275.899V275.901C524.583 275.904 524.586 275.904 524.588 275.904L524.583 275.899ZM518.538 257.417C518.528 257.477 518.516 257.538 518.506 257.599C518.516 257.538 518.528 257.477 518.54 257.417H518.538ZM518.237 259.657C518.229 259.749 518.222 259.841 518.217 259.934C518.222 259.841 518.229 259.749 518.239 259.657C518.239 259.64 518.24 259.623 518.242 259.606C518.239 259.623 518.239 259.64 518.237 259.657V259.657ZM524.583 275.901C524.583 275.904 524.586 275.904 524.588 275.904L524.583 275.899V275.901ZM518.538 257.417C518.528 257.477 518.516 257.538 518.506 257.599C518.516 257.538 518.528 257.477 518.54 257.417H518.538ZM518.217 259.934C518.222 259.841 518.229 259.749 518.239 259.657C518.239 259.64 518.24 259.623 518.242 259.606C518.239 259.623 518.239 259.64 518.237 259.657C518.229 259.749 518.222 259.841 518.217 259.934V259.934ZM593.198 304.581C593.151 304.531 593.101 304.484 593.048 304.441L593.045 304.438L581.027 294.296L580.716 294.034L579.534 293.036L579.238 292.786L577.554 291.364L577.092 290.975L576.139 290.17L575.651 289.757L571.049 285.876L568.411 283.651L568.057 283.352L560.283 276.792C560.402 276.622 560.518 276.452 560.632 276.28C560.725 276.137 560.817 275.996 560.909 275.853C560.919 275.836 560.931 275.819 560.941 275.802C560.994 275.719 561.045 275.634 561.096 275.552C561.125 275.508 561.152 275.464 561.176 275.421C561.215 275.36 561.254 275.297 561.29 275.234C561.326 275.173 561.363 275.11 561.399 275.047C561.569 274.763 561.729 274.476 561.885 274.188L561.899 274.161L562.023 273.925C562.101 273.782 562.176 273.637 562.249 273.491C562.252 273.488 562.253 273.483 562.254 273.479C562.329 273.331 562.404 273.18 562.474 273.03C562.477 273.028 562.477 273.023 562.479 273.02C562.569 272.833 562.656 272.646 562.741 272.455C562.763 272.411 562.783 272.367 562.802 272.324C562.882 272.139 562.962 271.952 563.04 271.765C563.12 271.574 563.198 271.38 563.273 271.185C563.348 270.991 563.423 270.795 563.494 270.6C563.627 270.229 563.753 269.857 563.87 269.484C563.875 269.463 563.882 269.442 563.889 269.421C563.95 269.222 564.008 269.025 564.067 268.826C564.103 268.698 564.137 268.571 564.171 268.443C564.195 268.351 564.219 268.258 564.241 268.166C564.253 268.13 564.261 268.096 564.27 268.059C564.302 267.936 564.331 267.814 564.36 267.69C564.365 267.671 564.37 267.649 564.375 267.63C564.433 267.38 564.489 267.127 564.54 266.877C564.567 266.751 564.591 266.625 564.615 266.499C564.661 266.246 564.707 265.994 564.746 265.742C564.766 265.623 564.783 265.504 564.8 265.385C564.816 265.278 564.831 265.171 564.846 265.067C564.865 264.931 564.882 264.797 564.897 264.662C564.96 264.125 565.006 263.591 565.035 263.055C565.045 262.895 565.052 262.734 565.059 262.572C565.066 262.385 565.071 262.2 565.074 262.014C565.076 261.858 565.079 261.701 565.079 261.545C565.079 261.077 565.066 260.611 565.042 260.142C565.003 259.392 564.933 258.646 564.831 257.902C563.961 251.547 560.834 245.717 556.02 241.478C551.206 237.238 545.027 234.873 538.613 234.814C532.199 234.755 525.977 237.007 521.086 241.157C516.195 245.307 512.961 251.079 511.975 257.417C511.951 257.577 511.926 257.74 511.905 257.902C511.825 258.485 511.765 259.07 511.725 259.657C511.713 259.82 511.703 259.98 511.696 260.142C511.481 264.258 512.222 268.367 513.861 272.148C515.5 275.929 517.993 279.279 521.144 281.935C521.732 282.43 522.334 282.896 522.95 283.333C522.952 283.335 522.955 283.335 522.957 283.338C523.164 283.483 523.37 283.626 523.579 283.767C523.911 283.986 524.246 284.199 524.583 284.403C524.61 284.418 524.637 284.435 524.664 284.449C524.955 284.624 525.248 284.791 525.542 284.954H525.545C526.638 285.555 527.772 286.077 528.94 286.517C532.366 287.806 536.019 288.379 539.675 288.201H539.682C543.949 287.995 548.103 286.765 551.795 284.617C552.332 284.306 552.861 283.973 553.378 283.619C553.506 283.532 553.638 283.442 553.764 283.352C553.919 283.243 554.074 283.129 554.23 283.015C554.232 283.015 554.232 283.012 554.235 283.012C554.246 283.003 554.258 282.994 554.271 282.986C554.375 282.906 554.482 282.825 554.584 282.748C554.611 282.728 554.637 282.709 554.664 282.687C554.671 282.682 554.678 282.676 554.684 282.67C554.744 282.626 554.802 282.578 554.863 282.532C554.924 282.486 554.982 282.437 555.043 282.389C555.053 282.382 555.063 282.375 555.072 282.367C555.14 282.311 555.208 282.258 555.276 282.202C555.346 282.146 555.414 282.088 555.48 282.032C555.548 281.976 555.613 281.92 555.681 281.862C555.739 281.813 555.8 281.762 555.858 281.709C555.878 281.694 555.895 281.677 555.914 281.66C555.922 281.653 555.93 281.647 555.938 281.641C556.018 281.573 556.096 281.503 556.174 281.432C556.193 281.415 556.21 281.398 556.23 281.381C556.349 281.275 556.467 281.168 556.584 281.056C556.611 281.032 556.64 281.005 556.666 280.981C556.693 280.957 556.717 280.932 556.744 280.908C556.778 280.874 556.815 280.843 556.848 280.809C556.936 280.726 557.021 280.641 557.108 280.556L557.395 280.799L557.499 280.886H557.501L557.533 280.915L557.647 281.01L559.341 282.442L559.378 282.474L559.407 282.495L559.598 282.658L559.982 282.983L560.365 283.306L560.421 283.352L562.205 284.857L562.453 285.066L564.173 286.517L573.081 294.034L573.391 294.296L585.582 304.581L588.708 307.22L589.871 308.2C590.118 308.409 590.403 308.567 590.711 308.665C591.019 308.764 591.343 308.801 591.665 308.774C591.987 308.747 592.301 308.656 592.588 308.508C592.875 308.36 593.131 308.156 593.339 307.909C593.514 307.704 593.652 307.471 593.749 307.22C593.925 306.774 593.967 306.287 593.869 305.818C593.771 305.349 593.538 304.919 593.198 304.581V304.581ZM522.894 248.32C525.329 245.435 528.531 243.297 532.129 242.154C535.727 241.011 539.575 240.909 543.229 241.861C546.883 242.812 550.193 244.777 552.777 247.53C555.36 250.283 557.113 253.71 557.832 257.417C557.863 257.579 557.892 257.74 557.919 257.902C558.018 258.482 558.091 259.07 558.135 259.657C558.147 259.82 558.159 259.98 558.166 260.142C558.188 260.506 558.198 260.873 558.198 261.237C558.199 263.445 557.834 265.638 557.115 267.727V267.729C556.313 270.071 555.081 272.242 553.482 274.132C553.448 274.171 553.414 274.212 553.378 274.251C553.057 274.629 552.72 274.993 552.373 275.34C552.371 275.343 552.368 275.348 552.366 275.35C552.247 275.469 552.125 275.59 552.004 275.702C551.757 275.942 551.504 276.171 551.247 276.389C550.861 276.726 550.465 277.043 550.06 277.338C549.924 277.437 549.788 277.535 549.65 277.632C549.514 277.729 549.376 277.821 549.237 277.913C548.961 278.098 548.679 278.275 548.395 278.442C548.254 278.527 548.109 278.61 547.966 278.69C547.822 278.772 547.677 278.85 547.531 278.925C547.386 279.003 547.24 279.078 547.092 279.151C546.798 279.299 546.502 279.437 546.201 279.566C546.051 279.634 545.9 279.697 545.75 279.755C545.655 279.794 545.563 279.833 545.468 279.867C545.431 279.884 545.393 279.899 545.354 279.911C545.303 279.932 545.252 279.952 545.201 279.969C545.185 279.976 545.168 279.983 545.15 279.988C545.046 280.03 544.944 280.066 544.837 280.102C544.684 280.158 544.531 280.209 544.376 280.258C544.221 280.309 544.068 280.357 543.912 280.401C543.757 280.449 543.599 280.493 543.444 280.534C543.286 280.578 543.131 280.619 542.973 280.656C542.806 280.699 542.638 280.738 542.468 280.775C542.32 280.809 542.175 280.838 542.027 280.864C541.888 280.894 541.747 280.918 541.609 280.942C541.415 280.976 541.221 281.008 541.024 281.034C540.917 281.051 540.813 281.066 540.706 281.076C540.66 281.083 540.616 281.088 540.573 281.093C540.437 281.112 540.301 281.127 540.167 281.139C540.131 281.141 540.097 281.146 540.063 281.148C539.915 281.163 539.765 281.175 539.616 281.187C539.299 281.209 538.983 281.224 538.665 281.231C538.505 281.233 538.342 281.236 538.182 281.236C538.022 281.236 537.862 281.233 537.702 281.228C537.702 281.228 537.702 281.231 537.699 281.228C537.697 281.231 537.697 281.231 537.694 281.228C537.694 281.229 537.694 281.229 537.693 281.229C537.693 281.229 537.692 281.23 537.692 281.23C537.691 281.23 537.691 281.229 537.691 281.229C537.69 281.229 537.69 281.229 537.689 281.228C537.682 281.231 537.673 281.231 537.665 281.228C537.551 281.228 537.437 281.224 537.325 281.216C537.243 281.214 537.158 281.211 537.073 281.204C536.959 281.199 536.845 281.192 536.731 281.182C536.694 281.182 536.658 281.178 536.622 281.175C536.604 281.175 536.587 281.173 536.571 281.17C536.454 281.161 536.335 281.151 536.219 281.139C536.16 281.134 536.1 281.129 536.041 281.122C535.864 281.102 535.687 281.08 535.512 281.056C535.313 281.032 535.114 281.003 534.918 280.966C534.826 280.954 534.736 280.937 534.646 280.92C534.527 280.901 534.408 280.879 534.289 280.855C534.165 280.83 534.042 280.806 533.918 280.777C533.818 280.755 533.716 280.733 533.617 280.709C533.568 280.699 533.52 280.687 533.474 280.675C533.219 280.614 532.966 280.549 532.716 280.476C532.559 280.432 532.401 280.386 532.246 280.338C532.032 280.272 531.821 280.202 531.61 280.127C531.527 280.1 531.447 280.071 531.365 280.039C531.282 280.013 531.202 279.981 531.119 279.949C531.044 279.923 530.969 279.894 530.896 279.864C530.775 279.818 530.656 279.77 530.537 279.721C530.292 279.622 530.052 279.517 529.811 279.406C529.675 279.34 529.539 279.277 529.406 279.212C528.879 278.957 528.361 278.674 527.85 278.362C527.724 278.287 527.598 278.207 527.472 278.127C527.314 278.03 527.161 277.928 527.008 277.826C526.923 277.768 526.841 277.712 526.758 277.653C526.605 277.547 526.455 277.437 526.307 277.328C526.229 277.272 526.151 277.214 526.076 277.156C525.807 276.952 525.542 276.738 525.282 276.52C525.159 276.416 525.035 276.309 524.913 276.2C524.863 276.156 524.812 276.11 524.761 276.064C524.702 276.01 524.644 275.959 524.588 275.904L524.583 275.899C524.498 275.823 524.413 275.743 524.331 275.663C524.202 275.542 524.076 275.418 523.955 275.292C523.829 275.168 523.707 275.04 523.588 274.913C523.467 274.787 523.35 274.659 523.236 274.527C523.12 274.399 523.006 274.268 522.894 274.134C522.785 274.008 522.678 273.877 522.576 273.748C522.329 273.443 522.092 273.131 521.868 272.814C521.763 272.668 521.664 272.523 521.567 272.375C521.462 272.224 521.363 272.071 521.268 271.918C521.169 271.765 521.074 271.61 520.982 271.452C520.979 271.447 520.976 271.442 520.972 271.438C520.79 271.13 520.615 270.819 520.453 270.503C520.285 270.183 520.127 269.859 519.979 269.533C519.904 269.37 519.831 269.205 519.763 269.04C519.623 268.707 519.491 268.375 519.37 268.038C519.309 267.875 519.254 267.712 519.198 267.547C519.196 267.536 519.193 267.526 519.188 267.516C519.076 267.181 518.975 266.843 518.885 266.504C518.882 266.499 518.882 266.494 518.88 266.489C518.834 266.322 518.79 266.154 518.751 265.984C518.712 265.836 518.678 265.688 518.647 265.538C518.61 265.37 518.574 265.203 518.543 265.033C518.526 264.945 518.509 264.858 518.494 264.771C518.479 264.698 518.467 264.623 518.455 264.55C518.443 264.477 518.431 264.402 518.419 264.327C518.394 264.179 518.373 264.031 518.353 263.882C518.329 263.708 518.31 263.533 518.29 263.356C518.268 263.145 518.249 262.933 518.232 262.72C518.22 262.577 518.212 262.431 518.205 262.285C518.198 262.152 518.191 262.018 518.188 261.885C518.186 261.878 518.186 261.87 518.188 261.863C518.188 261.863 518.188 261.862 518.187 261.862C518.187 261.862 518.187 261.861 518.187 261.861C518.187 261.86 518.187 261.86 518.187 261.859C518.188 261.859 518.188 261.859 518.188 261.858C518.186 261.856 518.186 261.856 518.188 261.853C518.188 261.853 518.188 261.853 518.187 261.852C518.187 261.852 518.187 261.851 518.187 261.851C518.187 261.851 518.187 261.85 518.187 261.85C518.188 261.849 518.188 261.849 518.188 261.849C518.186 261.795 518.183 261.742 518.183 261.688C518.178 261.531 518.176 261.373 518.176 261.215C518.176 261.072 518.178 260.931 518.181 260.788C518.186 260.589 518.193 260.39 518.203 260.191C518.203 260.147 518.208 260.106 518.21 260.062C518.212 260.019 518.215 259.977 518.217 259.934C518.222 259.841 518.229 259.749 518.239 259.657C518.239 259.64 518.24 259.623 518.242 259.606C518.249 259.502 518.259 259.397 518.268 259.293C518.288 259.084 518.312 258.873 518.339 258.664C518.353 258.56 518.365 258.456 518.382 258.351C518.392 258.278 518.404 258.203 518.416 258.128C518.426 258.053 518.438 257.977 518.453 257.902C518.47 257.803 518.487 257.701 518.506 257.599C518.516 257.538 518.528 257.477 518.54 257.417C518.586 257.174 518.637 256.931 518.693 256.689C518.749 256.444 518.812 256.201 518.88 255.958C518.945 255.713 519.018 255.468 519.096 255.223C519.132 255.099 519.171 254.978 519.215 254.856C519.295 254.611 519.38 254.368 519.474 254.128C519.518 254.009 519.564 253.888 519.615 253.769C519.712 253.529 519.814 253.288 519.919 253.053C519.972 252.934 520.025 252.815 520.084 252.696C520.193 252.461 520.307 252.225 520.431 251.995C520.55 251.759 520.678 251.529 520.809 251.301C520.94 251.073 521.076 250.844 521.22 250.619C521.285 250.507 521.358 250.393 521.433 250.284C521.579 250.06 521.732 249.837 521.887 249.619C522.2 249.177 522.537 248.743 522.894 248.32ZM518.237 259.657C518.229 259.749 518.222 259.841 518.217 259.934C518.222 259.841 518.229 259.749 518.239 259.657C518.239 259.64 518.24 259.623 518.242 259.606C518.239 259.623 518.239 259.64 518.237 259.657ZM518.538 257.417C518.528 257.477 518.516 257.538 518.506 257.599C518.516 257.538 518.528 257.477 518.54 257.417H518.538ZM524.583 275.899V275.901C524.583 275.904 524.586 275.904 524.588 275.904L524.583 275.899Z" fill="#3F3D56"/>
<path opacity="0.3" d="M525.282 276.52C521.443 273.28 518.963 268.715 518.334 263.732C517.705 258.748 518.973 253.71 521.886 249.618C521.504 250.004 521.134 250.407 520.777 250.829C519.082 252.837 517.8 255.16 517.002 257.664C516.205 260.168 515.909 262.805 516.131 265.423C516.353 268.042 517.088 270.591 518.295 272.925C519.502 275.26 521.157 277.333 523.166 279.028C527.222 282.451 532.472 284.122 537.76 283.674C543.048 283.226 547.942 280.695 551.365 276.639C551.721 276.217 552.057 275.784 552.371 275.341C548.828 278.902 544.075 280.999 539.057 281.218C534.038 281.436 529.121 279.759 525.282 276.52V276.52Z" fill="black"/>
<g filter="url(#filter1_i_0_1)">
<path fill-rule="evenodd" clip-rule="evenodd" d="M70.2124 48.4521C73.3937 48.4521 75.9727 45.9433 75.9727 42.8485C75.9727 39.7537 73.3937 37.2449 70.2124 37.2449C67.031 37.2449 64.4521 39.7537 64.4521 42.8485C64.4521 45.9433 67.031 48.4521 70.2124 48.4521Z" fill="#ED6A5E"/>
</g>
<path d="M75.7227 42.8485C75.7227 45.7987 73.2622 48.2021 70.2124 48.2021C67.1626 48.2021 64.7021 45.7987 64.7021 42.8485C64.7021 39.8982 67.1626 37.4949 70.2124 37.4949C73.2622 37.4949 75.7227 39.8982 75.7227 42.8485Z" stroke="#CE5347" stroke-width="0.5"/>
<g filter="url(#filter2_i_0_1)">
<path fill-rule="evenodd" clip-rule="evenodd" d="M89.4135 48.4521C92.5949 48.4521 95.1739 45.9433 95.1739 42.8485C95.1739 39.7537 92.5949 37.2449 89.4135 37.2449C86.2322 37.2449 83.6532 39.7537 83.6532 42.8485C83.6532 45.9433 86.2322 48.4521 89.4135 48.4521Z" fill="#F6BE4F"/>
</g>
<path d="M94.9239 42.8485C94.9239 45.7987 92.4634 48.2021 89.4135 48.2021C86.3637 48.2021 83.9032 45.7987 83.9032 42.8485C83.9032 39.8982 86.3637 37.4949 89.4135 37.4949C92.4634 37.4949 94.9239 39.8982 94.9239 42.8485Z" stroke="#D6A243" stroke-width="0.5"/>
<g filter="url(#filter3_i_0_1)">
<path fill-rule="evenodd" clip-rule="evenodd" d="M108.615 48.4521C111.796 48.4521 114.375 45.9433 114.375 42.8485C114.375 39.7537 111.796 37.2449 108.615 37.2449C105.433 37.2449 102.854 39.7537 102.854 42.8485C102.854 45.9433 105.433 48.4521 108.615 48.4521Z" fill="#62C554"/>
</g>
<path d="M114.125 42.8485C114.125 45.7987 111.664 48.2021 108.615 48.2021C105.565 48.2021 103.104 45.7987 103.104 42.8485C103.104 39.8982 105.565 37.4949 108.615 37.4949C111.664 37.4949 114.125 39.8982 114.125 42.8485Z" stroke="#58A942" stroke-width="0.5"/>
<path d="M305.094 149.067C301.15 149.067 297.368 150.633 294.58 153.422C291.791 156.21 290.225 159.992 290.225 163.936V217.465C290.225 221.408 291.791 225.19 294.58 227.979C297.368 230.767 301.15 232.334 305.094 232.334H370.518C374.462 232.334 378.244 230.767 381.032 227.979C383.821 225.19 385.387 221.408 385.387 217.465V163.936C385.387 159.992 383.821 156.21 381.032 153.422C378.244 150.633 374.462 149.067 370.518 149.067H305.094ZM330.461 173.309L354.251 188.19C354.672 188.454 355.02 188.82 355.264 189.253C355.507 189.686 355.638 190.174 355.644 190.671C355.651 191.168 355.533 191.658 355.301 192.098C355.069 192.537 354.731 192.911 354.317 193.186L330.526 208.942C330.078 209.239 329.558 209.408 329.021 209.433C328.484 209.457 327.95 209.336 327.477 209.082C327.003 208.827 326.608 208.449 326.332 207.988C326.056 207.527 325.911 206.999 325.911 206.462V175.831C325.911 175.3 326.053 174.779 326.322 174.322C326.592 173.864 326.978 173.487 327.443 173.23C327.907 172.973 328.432 172.844 328.962 172.858C329.493 172.872 330.01 173.028 330.461 173.309Z" fill="#FF0000" fill-opacity="0.65"/>
</g>
<defs>
<filter id="filter0_d_0_1" x="0" y="0" width="675" height="414.178" filterUnits="userSpaceOnUse" color-interpolation-filters="sRGB">
<feFlood flood-opacity="0" result="BackgroundImageFix"/>
<feColorMatrix in="SourceAlpha" type="matrix" values="0 0 0 0 0 0 0 0 0 0 0 0 0 0 0 0 0 0 127 0" result="hardAlpha"/>
<feOffset dy="16"/>
<feGaussianBlur stdDeviation="20"/>
<feComposite in2="hardAlpha" operator="out"/>
<feColorMatrix type="matrix" values="0 0 0 0 0.5 0 0 0 0 0.5 0 0 0 0 0.5 0 0 0 0.15 0"/>
<feBlend mode="normal" in2="BackgroundImageFix" result="effect1_dropShadow_0_1"/>
<feBlend mode="normal" in="SourceGraphic" in2="effect1_dropShadow_0_1" result="shape"/>
</filter>
<filter id="filter1_i_0_1" x="64.4521" y="37.2449" width="11.5207" height="11.2073" filterUnits="userSpaceOnUse" color-interpolation-filters="sRGB">
<feFlood flood-opacity="0" result="BackgroundImageFix"/>
<feBlend mode="normal" in="SourceGraphic" in2="BackgroundImageFix" result="shape"/>
<feColorMatrix in="SourceAlpha" type="matrix" values="0 0 0 0 0 0 0 0 0 0 0 0 0 0 0 0 0 0 127 0" result="hardAlpha"/>
<feOffset/>
<feGaussianBlur stdDeviation="3"/>
<feComposite in2="hardAlpha" operator="arithmetic" k2="-1" k3="1"/>
<feColorMatrix type="matrix" values="0 0 0 0 0.92549 0 0 0 0 0.427451 0 0 0 0 0.384314 0 0 0 1 0"/>
<feBlend mode="normal" in2="shape" result="effect1_innerShadow_0_1"/>
</filter>
<filter id="filter2_i_0_1" x="83.6532" y="37.2449" width="11.5207" height="11.2073" filterUnits="userSpaceOnUse" color-interpolation-filters="sRGB">
<feFlood flood-opacity="0" result="BackgroundImageFix"/>
<feBlend mode="normal" in="SourceGraphic" in2="BackgroundImageFix" result="shape"/>
<feColorMatrix in="SourceAlpha" type="matrix" values="0 0 0 0 0 0 0 0 0 0 0 0 0 0 0 0 0 0 127 0" result="hardAlpha"/>
<feOffset/>
<feGaussianBlur stdDeviation="3"/>
<feComposite in2="hardAlpha" operator="arithmetic" k2="-1" k3="1"/>
<feColorMatrix type="matrix" values="0 0 0 0 0.960784 0 0 0 0 0.768627 0 0 0 0 0.317647 0 0 0 1 0"/>
<feBlend mode="normal" in2="shape" result="effect1_innerShadow_0_1"/>
</filter>
<filter id="filter3_i_0_1" x="102.854" y="37.2449" width="11.5207" height="11.2073" filterUnits="userSpaceOnUse" color-interpolation-filters="sRGB">
<feFlood flood-opacity="0" result="BackgroundImageFix"/>
<feBlend mode="normal" in="SourceGraphic" in2="BackgroundImageFix" result="shape"/>
<feColorMatrix in="SourceAlpha" type="matrix" values="0 0 0 0 0 0 0 0 0 0 0 0 0 0 0 0 0 0 127 0" result="hardAlpha"/>
<feOffset/>
<feGaussianBlur stdDeviation="3"/>
<feComposite in2="hardAlpha" operator="arithmetic" k2="-1" k3="1"/>
<feColorMatrix type="matrix" values="0 0 0 0 0.407843 0 0 0 0 0.8 0 0 0 0 0.345098 0 0 0 1 0"/>
<feBlend mode="normal" in2="shape" result="effect1_innerShadow_0_1"/>
</filter>
<clipPath id="clip0_0_1">
<rect width="1440" height="5227" fill="white" transform="translate(-125 -818)"/>
</clipPath>
</defs>
</svg>
